<?xml version="1.0" encoding="utf-8"?>
<!-- Generator: Adobe Illustrator 19.2.1, SVG Export Plug-In . SVG Version: 6.00 Build 0)  -->
<svg version="1.1" id="layer" xmlns="http://www.w3.org/2000/svg" xmlns:xlink="http://www.w3.org/1999/xlink" x="0px" y="0px"
	 viewBox="0 0 652 652" style="enable-background:new 0 0 652 652;" xml:space="preserve">
<style type="text/css">
	.st0{fill-rule:evenodd;clip-rule:evenodd;fill:#020040;}
	.st1{fill:#AC704C;}
	.st2{fill:#020040;}
</style>
<path class="st0" d="M239.1,344.1c-8.8,9.3-5.6,24.1,5.9,29.5l1.4-2.7l0.6,3l1.7,0.3l3.9,0.2l4.1-0.3l3.7-1.8l3.4-2.8l2.1-3.3
	l-0.4-1.3c-11.9,10.1-17.9,2.2-21.7-9.6l-7.5,0.7c2.8-1.5,6.4,0,8.8-1.5c-0.5-3.8-3.3-7.3-5.5-10.1L239.1,344.1 M261.3,368.9
	l-0.8,1.3l-1.3-1.3H261.3z M245,364.8h2.1l-2.1,2.1V364.8z M251.6,355.8l0.2,0l3.2,0.7l3.8-0.1l4.4-0.7l3.2-1.2l0.8-2.5l-0.3-3
	l-1.1-3.5l-2.9-3.9l-4.1-2.6l-3.5-0.7l-3.1-0.6c-7.6,1.7-7.2,0.6-13.1,6.4l0.4,0.4l2.2,0l0.7-1.3c-1.5,4.1,3,6.4,4.7,9.5l-0.7,0.6
	C247.9,354,249.7,354.9,251.6,355.8z M246.9,351.7l-0.7-2.8l1.2-3.6l1.9-2.7l2.4-1.2l2.1,0.5C259.1,349.1,256.9,355.2,246.9,351.7z"
	/>
<path class="st0" d="M145.4,319.6c-8.8-3.5-20.2,5.2-21.1,14.2l0-0.1c2.2,0,1.8-4,4.3-1.5v1.5l-2.1-0.8l-2.5,2l-0.1,0.3l-1.7,2.7
	l-2.2,2l-0.2,1.1l2,2.8l0.6,3.6l0.3-0.2l4.8,2.8c-1.7-0.6-3.1-1.9-5.1-2.1v-0.1l0.1,0.4l0.5,5l0.2,4.3l0.1,3.9l-0.5,3.9l-0.4,3.4
	l-2.1,2l-2.1,1.4l0.6,1.9l4.3,0.4l4.9-0.3l3.6,0.3l3,0.1l3-0.6l1.2-0.4l-1-2.5l-0.3-0.1l-1-0.8h0l-6.6,0.7c2-1.1,4.3-0.6,6.4-0.8
	l-1.5-1.3l-0.5-3.6l0-4.1l0-0.5l-1.1-1.4l-0.5-0.6l0.5,0.6l1,0.1l0,0.7l-0.2-2.9l0.3-4.3l-0.5-4.9l1.1-4.2l3.4-1.5l3.3-1.4l0.3-0.9
	l-3.1-1.1l-3.8-1.3l-1.4-3.9l0.9-4.5l1.3-3.9l2.3-2.1l1.7,0.3l1.6,2.8l1.9,2.6l1.9-0.3l1.1-3.5l0.7-3.4L145.4,319.6 M124,335.8
	l0.6-0.4l1.6,1.5L124,335.8z M127.2,340.5v-2.9l1.6,2.9H127.2z M127.4,370.7l-4.7-0.7l4.7-0.7V370.7z M125.3,353.8
	c3.4-0.2,3.6,4.3,6.2,4.7C128.9,358.3,127,354.9,125.3,353.8z"/>
<path class="st0" d="M57.6,365.9c-8.5,3.7-6.4,6.8-16.7-0.8l-2.3-4.5l-1-5.3l0.8-5.2l1.8-4.6l3.9-2.6l3.6-1.9l2.4,1.5l2.2,3.3
	l1.3,3.5l1.9-0.1l1.3-3.9l0.5-4.1l-2.6-2.4l-3.7-1l-3.7-0.3l-3.7,0.9c-5.3,1.8-10.5,1.6-13.2,7.5l1.9,0.6l-2.3,0.2l-1.3,2.1l-2,3.7
	l-0.8,3.3l0.3,2.2l0.9,3l1,3.8l1.6,3.3l2.8,2.2l0.1,0.1l-0.2-0.3v-2.1l2.1,1.3l-1.6,1.3l-0.2-0.1l2.5,2l3.5,1l3.6,0.7l3.7,0.2
	l3.8-0.6l3.4-1.5l3.4-2.2l1.6-3.1L57.6,365.9 M39.8,339.6l0.5,0.4l-0.7-0.4L39.8,339.6z M35,349.4l1.5,1.8l0.6-0.4l1,1.1l-4.7-1.8
	L35,349.4z M34.2,357.7c-1.7-0.6,3,0.2,1.5,2.6C32.5,360.4,36.6,358.7,34.2,357.7z M34.8,354.6l0.2,0.1L34.8,354.6z M34.4,360.5
	l1.6,0.7h-1.6V360.5z M32.8,353.3l0.6,1.1l-1-0.7L32.8,353.3z M32.3,350.4l-0.6,0.7l-1.6-0.7H32.3z M32.3,361.2l-0.6,0v-0.4
	c-1.6-1-3.1-2.3-4.7-3.6c1.5-0.1,3.5,1.6,5.6,3.3h0.6l-0.4,0.2l4.2,2.5C35.4,362.8,33.8,362.1,32.3,361.2z"/>
<path class="st1" d="M80.4,338.8l-5,2.9c-1.2,1.3-2.1,3-2.8,4.8l1.1,2.9l-1.6-1.1c-0.5,2.1-0.8,4.3-0.7,6.3
	c0.6,10.9,8.5,22.4,20.2,21l0.7-0.1c-0.5-6.1-5.5-12.2-8.8-17C82.4,356.9,82.3,343.8,80.4,338.8 M79.2,339.6v1.7V339.6z M78.4,360.2
	l0.8-0.8l1.3,3.4C79.2,362.3,78,362.3,78.4,360.2z M77.8,356.9v-3.4l2.6,3.4H77.8z M94.2,339.9l1.1,4l-2.1-1.3l0.4-3.1
	c-2.8-1.7-6.1-2.6-9.7-2.1l-0.6,0.2c2.8,7.3,3.6,13.4,6.1,19.8l2.4,0.5l-1.9,0.6c0.8,2,1.8,4,3.1,6.1c2-0.2,3.6,0.6,4.8,2.1
	l-0.5,2.6l-1.5-1.3l-0.7,0.6l0-0.2c0.2,1.8-0.2,3.9-0.2,5.4l2.6-0.2l-0.9-0.2l0.9,0.2l3.4-3.2l-0.9-1.1h1.3l0.1,0.5l0.7-0.9
	c1.8-2.8,2.5-6.9,2.4-10.2C104,351.7,100.1,343.8,94.2,339.9z M93.7,356.7c0.7-0.5,1.8-2.8,3.7-2.2l-1.1,0.7l2,2.1L93.7,356.7z
	 M100,359.5v-2l1.5,0.7L100,359.5z M95.6,366l-2.5-1l1.1,1.7l0.3,0.6l-0.1-0.2L95.6,366z"/>
<path class="st0" d="M182.5,319.5c-6.3-2-13.1,1-17,6l0.5-0.6l0.7,0.8l0.6,0.6l-0.6-0.6l-1.2-0.1l-1.5,2l-1.7,4l-1.5,3.6l-1.1,3
	l-2.8,1.1l-0.3,2.2l2.5,2.2l1,4.5l-0.3-1.2v-0.4l0.6,2.1h-0.3l0-0.5l-0.2,5l0.1-2.3c0.8,1.9,0.7,4.4,2.5,5.1c-2.4,1.9,0.4,3,0.7,5.4
	l0.1,1.8l0,0.8l0.4,6.8c-0.4-1.8-0.6-3.8-0.9-5.7l-0.2-1.3l-1.2-1.2l0.7-0.7l-1.1-3l-1,6.6l-0.9,3.2l-0.9,0.8l-0.8,2.4l-1.4-0.4l1-1
	l-1.8,1.7l0.6,1.2l4.1,0.4l4.9-0.3l3.6,0.3l2.9,0.5l3,0l2.2-1.2l0.1-1l-2.2-1.9l-2.7-1.7l-1-3.5l0.1-4.1l-0.1-4.1l-0.1-4.3l0.5-4.9
	l0.4-3l-0.4-0.5l0.5,0.3l0.1-1.1l0.9-0.4l-0.5-0.3v-0.4h1.6v0.2l1.3-0.5l2-0.5l-0.6-0.3l2.1-0.3l-1,0.5l1.1-0.3l0.3-2l-3.3-0.9
	l-3.9-0.8l-0.9-4l0.7-4.5l1.4-3.8l2.1-2.1l1.5,0.4l1.6,2.8l-0.9-1.6c0.7-0.6,1.1-1.1,2.1,0.6l1.5,2.6l-0.9,0.2l0.4,0.5l1.7-0.2
	l1.5-3.4l0.5-3.6L182.5,319.5 M162.6,348.6v-2.8l2.8,4.1L162.6,348.6z M171.1,361c-1.4-1.3-3.4-3.1-3.2-5.5l0.2-0.9l-0.2,0.9
	L171.1,361z M177.2,322.7l1.3-1.5h1.3L177.2,322.7z M160.3,361.3l-0.2-2.8c1.3-2.2,0.5-3.4,0-4.9v-0.6l-0.1,4.3L160.3,361.3z"/>
<path class="st0" d="M220.5,345.6l-2.8-3.9l-4-2.7l-3.6-0.5l-3.1-0.6c-10.8,2-7.7,1-14.6,8.4l-2.1,3l-1.1,3.6l0.3,3.9l0,3.8l1.3,3.4
	c1.5,3.9,5.1,8.9,9.5,9.6l-0.5-3.7l-0.2-1.4l-1.2-1.2l0.7-0.7l-1.1-2.9l-1.3,6.7l0-4.1l-0.4,1.1l-0.6-2.1h0.7l-2.5-1.1l-0.6-0.6
	l2.1-0.8v-1.3l1.3,2.1c2.2-3.6-1.1-4.3,0-8.2c0.9,1.9,0.7,4.7,2.6,5.4c-2.4,1.9,0.4,3,0.7,5.4l0.1,1.8l0.1,0.8l0.3,4.8l-0.2,0l3,0.7
	l3.9,0.1l4-0.4l3.9-1.3l3.2-3.1l2.1-3.4l-0.2-0.9l-3.3,1.4l-3.4,2.2l-3.1,0.3l-3.6-1l-3.4-2.4l-2.5-3.8l-0.9-3.8l0.9-1.7l2.4-0.5
	l3.2-0.1l3.2,0.1l3.8,0.2l4.3-0.8l3.1-1.1l0.6-2.5l0.4-3L220.5,345.6 M196.8,353.5v-2.1l0.6,2.1H196.8z M199.4,353.5v-2.8l2.8,4.2
	L199.4,353.5z M214.5,356.1l-1.7-4.2c-2,0.8,1.4,2.7-1.2,3.8c0.5-2.2-0.1-3.2-1.2-4.4l0.2-0.3l-0.6,0.9l-4.2,0.6l-3.9-0.9l-0.7-2.8
	l1.1-3.6l2-2.7l2.4-1.2l2.2,0.5l1.5,1.9l0.9,3l0.3,3.1l-0.4,0.5l2,0.8l0.6-0.5l-0.1,1c-0.1,1.9,0.7,3.2,1.7,4.4L214.5,356.1z
	 M213.6,346.3l2.1-0.3L213.6,346.3z"/>
<path class="st0" d="M441.3,372.1l0.2,0.2c-5.5-4.6-3.8-15.1-3.7-22.2l-1.5-4.1l-1.2-4.4l-4.1-2.7l-5.1-1l-4.7,0.5l-3.2,1.7l-2.1,1
	l-0.5-0.8l-0.6-4.3l1-5.7l-0.5-5.8l-1-4l-2.6-1.2l-3.8,0.9l-3.9,0.2l-3.2,0.7c0.4,5.7,4.4-0.2,3.3,14.1l-0.2,3.2l0.1,3.2l0,3.2
	l0.1,2.1l1.6,1.9l-1.5-0.6l0.6,3.3l1.6-0.1c1.7,1.9-0.6,1.5-0.7,3.4l-1.2-1.2l-0.4,2l0.8,4.4l-0.5,4.4l-1.3,3.9l-1.8,3.4l-0.2,1.3
	l3.5,0.7l5.2,0.4l5.3,0.2l4.1-1.1l0.7-1.2l-1.7-1.4l-2-2.1l-0.5-2.6l0-3l-0.6-2.9l1-3l-1.2-2.9l0-0.7v0.1h-1.6l1-1.1l0.6,0.7l0-2
	l0.6-2.7l-0.8-0.3l-2.7-1.8l1.6-0.8l-1.6-1.8l2.7-1c1.9,1-1.3,3.4,1.2,4.6l-0.4,0.8l1.2-2.5l3-2.3l3.2,1l2.3,1.7l0.6,3.4l1.3,3.9
	l-0.2,4.8l-0.5,5.1l-0.1,5.1l0.6,4.1l3.3,1.5l4.1,0l4.1-0.3l3,0.3V372.1 M410.4,371v1.5l-0.8-1.6l-0.9-0.6v-0.7l0.6,0.5
	c-0.5-2.3-0.1-4.3-1.7-6.8c1.7,2.3,2.6,4.9,2.8,7.6l0.4,0.3H410.4z M410.7,332.1l0.1-1.6L410.7,332.1z M415.6,372.5l0.7-0.6
	L415.6,372.5c-0.2,0.8,0.6,2-1.3,1.4L415.6,372.5z M412.3,361.7l1.5,8.8l-1.5-6V361.7z M435.9,368.5l-1.3-0.6v-2.1
	C436.3,365.6,435.9,367.5,435.9,368.5z M437.4,373.7v-0.4l0.3,0.3L437.4,373.7z"/>
<path class="st0" d="M506.5,367.8l2.3,4l0.4,0.2c-0.9-1.8-2.1-3.5-3-5.4L506.5,367.8 M541.2,369.8l-2.3-2.4l-0.2,0.7
	c-0.6-0.9-1.3-4.7-4.1-3.4l3.4-1.3l0.9,2l0,1.9c0.5-8.1-1.9-14.2-0.4-22l-0.1-3.7l-1.1-2.3l-2.7-0.9l-4,0.1l-4,0.5l-3,1l-0.7,1.7
	l2.5,2l1.5,2.2l0.3,4.3l0.3,5.2l0.4,5.2l-0.3,1l0-0.1l2.2,2.2l0.4,0.1h2.5h-2.8l-2.7-1.1l-0.7,2.2l-1.9,2.8
	c-21.4,0.8,7.1-39.1-22.2-27.7l-0.6,1.8l2.7,2.4l1.3,4.3l-0.5,4.7l0.2,3c3.7,1.2,2.1-4.5,4.5-6.1c0.2,2-0.8,6.2-1.5,9.4
	c0.6-3.6-1.9-0.4-2.9-1.4l-0.1,0.8c1.2,3.1,4.9,6.8,3,10.7l1.5,1.5l1.3-2l-0.8,3.5l-0.8-0.4c7,4.5,11.4,1.8,17.4-2.4l0.8,0.3
	l1.3,1.9l1.2,0.5l0.2-0.2l0.7,0.6l1,0.4l-0.3-0.1l1.2,0.4l-0.9-0.3l3.9,1.3l3.8-0.9l2.8-0.8l0.3-1.4L541.2,369.8z M535,339.3l-1-0.8
	L535,339.3z M532.2,342.7l2.1-1.9v2.6L532.2,342.7z M533.7,346v-1.3c0.2,2.1,2.4,4.1,0.6,6.2C531.2,350.2,534.6,347.4,533.7,346z
	 M533.7,352.8l0.6,4.9l-0.6-2.8V352.8z M537.1,358.2l-0.7,3.4l-2.1-1.3L537.1,358.2z"/>
<path class="st1" d="M469.2,362.9c1.3-5.7,2.4-11.1,1.5-18.4c-0.3-2.1,2.1-4.7,3-6.5c1.5-2.8-7.5,0.3-8.7,1l-2.3,1.7l0.3,0.3
	l-1.9,1.3l0.5-0.6c-1.4,1.5-2.7,3.4-3.6,5.1c-1.9,3.9-2.7,8.6-2.3,13.2l0.5-0.1v0.5c4.1,1.7,2.4-4.3,4.9-6c0.2,2-0.7,6.2-1.5,9.4
	c0.7-4.3-3,1.1-3.4-2.6c-0.3,2.8,3.5,6.2,3.8,9.9c1.5,1.8,3.5,3.2,5.9,4.1l0.6,0.2c0.5-4.4,1.4-8.1,2.3-11.7l-0.7-0.1L469.2,362.9
	 M461.7,341.8l0.7-0.8L461.7,341.8z M485.4,345.7v2.1l-2.1-0.7l1.9-1.7c-1.7-3.2-4.3-5.8-8.1-7.3l-0.6-0.2
	c-2.4,5.6-0.9,13.3-0.2,19.1c0.1,0.9-1.1,3.7-2.4,6.9l0.1-0.2c1.8,1.4,5.1,1.5,7,4.6l0.4,0.1h2.4l1.3-2.3l0.5-1.3l-0.2-0.1l0.3-0.2
	C488,358.4,488.1,351.2,485.4,345.7z M484.8,359.2v-2.1l0.6,4.9L484.8,359.2z M484.8,350.4v-1.3c0.2,2.1,2.4,4.1,0.6,6.2
	C482.4,354.6,485.8,351.8,484.8,350.4z M477.7,367.1c0-2.8-2.2-0.2-3.9-2.1l-0.1-0.5c-1.6,3.9-3.5,8.4-3.8,11.3l5.7-0.2
	c3.3-1.2,6.3-4,8.3-7.2h-2.7L477.7,367.1z"/>
<path class="st0" d="M607.9,356.2c8.4,0.2,9,0.8,17.5-2c4.3-18.1-21-21.1-28.5-8.1c-8,14-0.4,29,16.5,28.5l-0.6,0l-0.5-0.8l1.3,0.8
	l2.3-0.1l3.8-1.9l3.7-2.7l1.8-3.6l-0.6-1.3l-2.9,2l-3.7,1.6l-3,0.9l-3.7-0.8L608,366l-2-4l-1.4-3.7l1-1.8L607.9,356.2 M618.7,370.8
	l0.7,2l-0.7,0V370.8z M612.7,370.2l0.8,0.6c-1.9-0.4-0.8,2.4-2.8,1.5L612.7,370.2z M612.7,354.6l1.3-2l0.7,2H612.7z M606.1,339.3
	l1.5,0.7l-1.5,1.3V339.3z M603.8,348.6l-0.6,2.6l-1.5-1.3l-1.3,0.6l-0.6-0.6l1.9-2.1l-3.4-1.3C600.7,346.2,602.5,347,603.8,348.6z
	 M601.8,360.6l-2.6,1.5l1.3-1.5H601.8z M604.6,371.5h-3.4l1.3-1.3c-3.7-0.5-3.3-3.4-4.3-5.5l-0.3-0.6l-0.1-0.1v-0.3l0.1,0.4l0.3,0.6
	c2-0.3,2-2.4,3.5,0.1l1.5,2.6l-1.5,0.7L604.6,371.5z M603.5,355.6l-1-0.2L603.5,355.6l1.6,0.4L603.5,355.6z M606.7,345.3l1.9-2.7
	l2.4-1.2l2.1,0.5l0.4,0.5l-0.1-0.6l0.2,0.5c1,1.8,5.1,4.5,2,5.3l-0.1-1l0.4,3.1l-1.5,2l-4.2,0.7l-2.8-0.7l-0.1,1.1l0.7,0.9l-0.7-0.9
	l-1.3-1.7h0.3l-0.7-2.4L606.7,345.3z"/>
<path class="st0" d="M580.6,366.6c-0.9-3.4-3.3-6.5-5.3-8.9l-0.5-0.6l0.5,0.6l2.2,0l0.8-1.3c-1.1,3,0.9,5,2.8,7l0,2.5
	c1.6-14.6-15.9-13.1-17.3-20.6l1.6-1.9l2.8-1.5l3,0l1.6,1.8l1.6,2.5l1.6,2.2l1.8-0.8l1.1-4.3l0-4.4l-1.1-0.6l-3.5,0.5l-3.5-0.2
	l-0.3-0.1l0.4,0.8h-1.6V338l-0.8-0.3l-2.2,0.6l-3.9,1.1l-4.1,2.2l-2.3,3.6l-1.2,3.8l0.6-1.9l2.3,0.7l2.4,0.6l-2.4-0.6l-2.9,1.6
	l0.3,2.2l3.5-0.5c1.3,2.7-1.3,2.4-1.8,3.9l0.2,0.3l2.4,2.6l3.3,1.7l3.4,1.8l3.2,1.7l2,2l0.4,2.2l-1.8,2.5l-3.5,1.5l-3.6-1.4
	l-3.2-3.8l-2.5-3.4l-1.5-0.1l-0.6,4.1l0.2,4.4l3.4,2.1l3.8,1.4l3.9,0l4.6-0.5l4.8-2l3.7-3l1.8-3.2L580.6,366.6 M555.1,365.9l-0.2,0
	l0.4-2.6L555.1,365.9z M567.3,352.4c3.4-0.2,3.6,4.3,6.2,4.7C570.9,356.9,569,353.5,567.3,352.4z M579.5,368.5l-7.5,0.7
	c2.4-1.3,5.3-0.4,7.6-1L579.5,368.5z"/>
<path class="st1" d="M285,365.9l1.6,1.6l0.8-1.2l0-0.1l-0.7-0.5h-2.1l0.7-3.1l1.4,2.3l0.3,0l0,0c-1.1-2.5-1.4-4.4-1.4-7.2
	c-0.5,1.6-1.9,4.6-3.4,3.5l3.4-4.1l-0.3-1.5l0.2-0.4l0.1-0.9l-0.3-0.9c0.6-1.5,0.3-4.1,0.1-6.2l-0.3-2.2l-0.7-0.6v-2l0.3,0v0.1
	l-0.1-0.6l0.2-0.3l0.2-0.1l0.7-0.5l1-1.9l0.1-0.6l-0.2-0.7l-0.2-0.4l1-1.8l0.1-0.8l-0.1-0.3l0.7-1.3l0.1-0.4l-0.1-1.2l-0.1-0.5
	l1.8-3l0-1l0.9-1.6l0.3-0.1l0.5-0.5l0.8-1.4l0-1l0.5-0.9l0.3-0.1l0.5-0.5l0.2-0.4l0.5-0.2l0.5-0.4l0.9-1.6l1.7-0.7
	c1.3-1.5,1.3-0.5,2.1-2.3l0.5-0.3l0.4-0.5l0.9-1.2l0.8-0.4l0.8-0.6l0.7-0.1l0.8-0.4l0.3-0.3l0.7-0.2l-1.3-0.5l1.5-0.8l-1.5-1.4
	l1.5,0.4l-0.4-2.6l-3.2,0.4c1-1.4-0.2-1.6,2.7-1.4l0.6,0.7c1.2-1.8,1.6,0.8,3.7,0l-0.6,0.3c2.5,0.1-0.1,1.1,0.8,1.6l-1.2,0.2
	l1.3,1.2l2.5-2l1.4-0.4l2.3-0.4l2.3-0.6l1.5-1.1l4.1-1.1c1.4-0.3,2.9-0.5,4.5-0.7l2.8,0.1l0.9-0.6l0.2-0.1c2.2,1.5,4.9-0.1,6.8-1.5
	l-0.1-2.1l-0.2-0.1l-2.2-1.2l-0.4-0.1l-0.7,0.1l-0.4-0.7l-0.2-0.2l-1.3-0.7l-0.2-0.1l-2.4,0.2l-1.4,0.5l-3.8,0.2l-2.5,1.3
	c-1.6-0.7-2.9-0.3-4,0.1l-1.6,0.5l-1.5-0.1H315l-2,0.6l0.7-0.2l2.4,1.9h0.7l-0.4,0.2l4.2,2.5c-1.8-0.4-3.4-1.1-4.9-2.1l-0.6,0V301
	l-2.6-1.9l0.4-0.1l-2.2,0.4l-0.6,0.3l-0.7,0.6l-0.3,0l0.8,0.6c-1.2,2-2.5,1.4-3.9,0.9l-0.1,0.1l-0.7,0.5l-0.4,0.2l-0.6,0.5l-0.5,0.9
	c-2.3,0.7-4.3,1.9-5.7,4.2l-0.4,0.3l-0.9,0.7l-0.9,0.7l-0.5,0.4l-0.4,0.4l-0.2,0.4l-0.4,0.2l-0.6,0.6l-0.8,1.4l-0.4,0.2l-0.9,0.4
	l-0.4,0.4l-0.7,1.1l-0.3,0.2l-0.8,0.4l-0.5,0.4l-0.8,1.4l-0.1,0.8l0.1,0.3l-1.6,2.8l-1.4,0.7l-0.5,0.7l-0.4,0.8l-0.1,0.7l0.1,0.3
	c-1.1,2.2-2.4,4.2-3.5,6.4l-0.7,2l-1.4,2.6l-0.1,0.9l0.1,2.4l-0.1,1.6l0.1,1.2l-0.3,0.5l-0.1,0.6l0.1,0.5l-0.2,0.4l-0.1,0.9l0.1,0.2
	l-0.7,1.3l-0.1,0.6l0.6,2.5l-0.2,0.4l-0.1,0.8l0.1,0.3l-0.2,0.4l-0.1,0.6c0.1,1.4,0.4,3.2,0.9,5.1h0.6v1.3h-0.2
	c0.8,2.9,1.9,6,2.8,8.2v0.1C282.3,367,283.4,366.9,285,365.9 M326.2,296.7l4.1,4.7l-5.4-2.8L326.2,296.7z M318.1,298.2l0.2-0.1
	l0.8,2.4C316.2,300.6,319.3,299.2,318.1,298.2z M317.8,301.4v-0.7l1.6,0.7H317.8z M279,312.1v-2.4l-0.4-0.2v-0.9l-0.5-0.4l-0.8-0.4
	l-1.2-0.9l-0.4,0h0l-1.4,4.1l-1.4-1.4l0.8,0.1l1.4-3l0.1,0.1l-0.8-0.6h-0.7l-0.5-0.4h-1l-3.2,3.8l-0.8,1.4l0.3,0.4l-0.2,0.2v0.8
	l0.4,0.3v0.9l1.2,1.7h1l0.3-0.4l0.5,0.7h-0.5v0.6h1.8l0.4-0.5l0.6,0.5h0.9l0.5-0.4h1.1l0.4-0.5v-0.9L279,312.1z M272.6,307.5
	l0.3,1.8L272.6,307.5z M287.3,366.2l0.5,1l-1.1,0.4l1.6,1.6l0.3-0.1l-0.2,0.2l0.5,0.5l-0.9-2.2l-0.9-2.3l-0.4,0.3l0.6,0.4l0.1,0.1
	L287.3,366.2L287.3,366.2z M290,372.6l-0.5-1.2L290,372.6z M273.3,326.4l-0.2,0.1L273.3,326.4l-0.2,1.2v1.3l0.3,0.6l-3.9-2.3h0.1
	l-0.4-0.1l-0.8,0.4v0.9l0.4,0.8l0.4,0.5h0.7l0.6,0.4h3.3l1.2-1.7v-0.9h-0.8L273.3,326.4z M314.3,407.8l-1.2-2.1h-1.8l-0.3-0.4h-1.3
	l-2,1.6v2.1l0.9,0.8l0.4,0l0.3,0.9h1.3l0.7,0.8h0.9l0.9-0.4l2-2.1v-0.5L314.3,407.8z M342.1,393.4l-0.8,0.2l-0.8,0.3l-0.8,0.5
	l-0.1,0.2l-0.2,0.5l-1,0.2l0.7-0.2l0.9,0.2c-3.2,2,0.9,9.3-5.3,6.8l-0.1-2.7h2.6l-1.2-3.8l-0.6,0.1l-0.3,1.6l0.1-1.6l-1.2,0.2
	l-0.6-0.3l-0.4-0.1l-0.7,0l-0.5-0.2l-0.6-0.1l-1.3,0.2l-0.7,0.1l-2.6-0.3l-1.8,0.6l-0.3-0.6l-0.3-0.3l-0.2-0.1v0.5
	c-3.1-2.4-6.4-1.1-8.5-2.2l-0.4,0.1l-0.9-0.5l-0.7-0.1l-0.9-0.1l-0.3-0.3l-0.9-0.5l-0.5-0.1l-0.7,0.1l-0.3-0.2l-1.2-0.6l-0.4-0.8
	l-0.3-0.2l-1.3-0.8l-0.4-0.1l-0.7,0.1l-2.6-1.4l-1.1-1.1l-0.3-0.2l-0.3-0.2l-1.9-1.9l-0.6-0.6l-0.6-0.9l-0.9-0.4l-0.7-0.1
	c-1.8-3.4-4.1-6.2-6-9.3l0.8,1.3l0.4,2.5H290l0.7-0.8l-2.1-0.6l0.2,0.3l-0.3-0.3l-1.3,0v-1.1c-2-1.2-4.3-2-4.5-4.7l4.5,4.4v-1.5
	l1.3,0.7l0.7-1.3l-0.7-0.7l0,0l0.9-0.2L289,370l0.2,0.4l-1.8-0.6l-2.8,0.5l1-1.3l-4.2-1.7l0.1,0.7l0.8,2.3l1.1,2.7l1.9,0.7v1.3
	l-0.5-0.1l0.1,0.1l1,3.6l0.5,0.7l1,0.6c1.2,2.2,0.3,1.3,2.2,3.4l-0.1-0.1l2.6,0.5l0.9-0.8l-0.7,0.7l-0.2,0l-1.3,1.1l1.2,0.8l0,0.1
	l3.4-2.5c-2.6-1.7-4.5,0.7-6.7-1.8c0.2-0.1,1.3-2.4,3.4-1.5l0.8-1.3h1.3c0.6,1.3-1.7,4.3,2.1,4.1l-0.7,1.3l1.2,1.2
	c-0.6-0.3-1.8,2.4-4.2,1.6l0.1,0.2l1.3,1.4l0.3,0.6l0.5,0.8l0.4,0.3c4.9,3.4,6.5,3.2,11.9,6.6l2.1,1.2l1,0.6l0.3,0.1l0.3,0.1
	l0.3,0.3l0.2,0.2l1.9,0.7l0.7,0.2l0.2,0.1l2.5,1.4l0.1,0.3l0.5,0.6l1.5,0.8l2,0l0.9,0.6l0.4,0.2l0.5,0.2l0.7,0l0.3-0.1l0.5-0.2
	l0.6,0.4l0.7,0.9l1.5,0.2l0.3,0.2l0.9,0.1l0.2-0.1l1.3,0.7l0.8,0.1l0.2,0l2.4,0.2c3.5-0.7,7.3-1.8,10.9-0.6l0.7-4
	C341.5,399.3,343.1,396.3,342.1,393.4z M288.3,378.6l2.1-1.3C291.1,378.6,289.1,380.3,288.3,378.6z M324.7,397l2.2,1.2L324.7,397z
	 M327.3,398.2l0.8-0.7V397l0.7,1.3L327.3,398.2z M285.5,357.2L285.5,357.2L285.5,357.2z M376.4,359.9l0.1-0.9L376.4,359.9
	L376.4,359.9z M390.1,351.7l0.6-1l0.1-0.4l-1.4-2.4l-0.8-2.7l0.1-1.3l-0.1-0.7l0-0.5l-0.2-0.8l-1.2-2.7l-0.5-1.6l-0.5-1.2l0-1.4
	l-0.4-0.9l0.5-0.9l0.1-0.8l-0.1-0.4l-0.5-0.6l-0.5-0.3l-0.7-0.8l-0.5-0.3l-0.1-0.3l-0.1-0.7l-0.9-1.3l-0.2-1.9l-1.1-1.8l-0.3-0.4
	l-0.7-0.7l-0.7-1l-1.9-2l-0.1-0.1v0l-1.6,0.9l1.3-1.5c-1.2-2-0.7,0.2-2.8-3.2l-0.5-0.3l-1.9-2l-0.4-0.2l-0.3-0.2l-0.5-0.7l-0.5-0.5
	l-0.9-0.5l-0.3-0.6l-0.3-0.2l-1.6-0.8l-1.5-0.7l-2.2-1.4l-0.2-0.2l-2.5-1.4l-0.4-0.7l-0.2-0.2l-1.8-1l-0.9-0.1l-0.2,0.1l-2.5-1.4
	l-0.7-0.1l-1.2,0.2l-0.7,0.6l-0.8,1.4l-0.1,0.8l0.1,0.4l0.5,0.6l0.9,0.5l0.3,0.1l0.3,0.2c1.1,0.9,3.7,3.6,4.6,4.7l0.2,0.2l0.5,0.3
	l0.3,0.6l0.3,0.3l1.7,0.9l0.8,1.5l0.8,0.5l0.5,0.3l1.1,1.3l0.5,0.6l1,0.6l0.2,1l0.6,1.1l0.5,0.4l0.5,0.3l1,0.5l0,1.4l1,2.4l0.3,0.3
	l1.3,0.8l0.6,2l1.6,2.1l0.1,0.5l1.2,1.2l0.6,1.5l-0.1,0.5l0.1,1.1l0.5,2.3l1.5,0.1l-1.4,0.6l0.9,3.4l-0.3,0.5l-0.2,0.7l0.2,1.5
	l0.5,1.4l-0.1,0.7l0,0.9l0,0.2l-0.1,0.2c2,2.3,5.1,3.7,4.4,8.1l-2.6-3.9c-3,1,0,3.2,0,4.7h-2.7l-0.1,0.1v2h-0.2l0,0.9l0.1,0.4
	l-0.3,0.5l-0.1,0.8l0.1,0.2l-0.5,0.9l-0.2,0.6l-0.2,1l-0.4,0.6l-0.6,1l-0.1,0.6l0.1,1l-0.5,0.5l-0.2,0.2l-1,1.7l-0.1,0.7l0.1,0.4
	l-2.3,4.3l-0.3,0l-0.6,0.1l-0.8,0.4l-0.3,0.4l-1.5,2.7l-0.1,0.4l-0.1,0.2l-0.5,0.2l-0.6,0.5l-0.8,1.3l-0.3,0.1l-1,0.6l-1.2,1
	l-0.3,0.1l-0.7,0.5l-0.5,0.9l-0.2,0.1l-0.7,0.5l-0.5,0.8l-0.8,0.6l-1,0.5l-1.1,0.7l-0.4,0.4l-0.5,0.9l-0.3,0.1l-1.5,0.4l-1.4,0.5
	l-0.6,0.3l-0.2,0.1l-4.6,1.2h-0.6l-3.1,0.5l-0.8,0.2c2,3.1,2.9,7.1,2.8,11.4l-0.2,0.1c1.4-0.6,3.2-0.9,5.2-1.3
	c2.1-0.4,4.3-0.7,5.9-1.3c1.9-0.6,3.5-1.7,5-2.6l4.2-2.7l0.5-0.4l0.7-1.3c2.3-0.4,3.8-1.2,5.1-3.4l0.5-0.2l0.5-0.5l4.2-4.1l0.6-0.5
	l1.4-2.6l0.9-0.2l1-1.4l0.4-0.4l0.8-1.5l0.1-1.1l0.7-0.5l0.8-1.4l0.1-0.9l-0.1-0.2l0.5-0.8l0-1.1l1.1-2l0.3-0.1l0.6-0.5l0.8-1.4
	v-1.1l0-0.3l0.1-0.3v-0.4l0-0.2l1.6-3l0.1-0.6l-0.1-2.2l0.1-0.8l0.4-0.4l0.6-1l0.1-0.4l-0.3-1.4c-2-4.8,2-4.2,0.4-6.7L390.1,351.7z
	 M363.9,313.2L363.9,313.2L363.9,313.2z M378.5,329.8l1.3-1.3c-3.7-0.5-3.3-3.4-4.3-5.5l-0.3-0.6l-0.1-0.1V322l0.1,0.4l0.3,0.6
	c2.1-0.3,2.1-2.4,3.6,0.1l1.5,2.6l-1.5,0.7l2.8,3.4H378.5z M385.4,353.1l-0.7-0.7h-1.3v-1.3l1.3,1.3l1.1,0.4L385.4,353.1z"/>
<path class="st2" d="M357.3,356.2L357.3,356.2 M346.7,258.9l-0.8,0.1L346.7,258.9z M361.8,253.8h0.7c1.7-1.3-0.4-2.6-0.7-3.9
	l2.1-2.1c-0.4-0.9-0.7-2.3-0.7-3.8l-0.4-0.1l-2.3,1.3c-1.6-0.2-4,0-5,1.5c-2.4,0.3-13,3.8-13.9,3.4l-1.1,1l-1.4-0.1
	c-1.4,1-3.4,1.3-5,1.5l-2.6,2.6c-1.2,2.9,2.3,6.8,1.2,9.9l0.9,1.9l0.2-0.4c1.6,0,0.6,0.8-0.2,2.2l0.3-1.4l-0.3,1.4l0.8,1.1
	c-0.9,3.9,5,17,3.7,19.9l0.8,1.1l0.9,3.7l-0.2,1.3l0.8,1.1c-0.1,1.8,3.8,20.3,4.4,21l0.8,3.7l0.1,3.9l1.2,2.3l-0.4,1.4
	c1.5,1.1,1.3,3.3,1.1,4.9l0.6,1.2l-6.8-1.7l-1.4,0.4l-1.3-0.8l-4.3,0.4c-1.7,0.7-6.9,2.1-8.6,1.8l-0.9,1l-3.3,1.3l1.1,1.1l-1.9,1.3
	l-0.1-2l-3.6,2.2l-2.6,2.4l-1.7,3.2h0c0.6,1.1,0.5,3,2.5,2.2c0.4,2.8-0.4,6.2-3.4,6.2l-2.1-2.1c-1.7,1.7,0.4,3.6,0.7,5.4l0.6-0.8
	c1.1-2-0.4,1.7,2.1,1.3l2.6-0.6v0.6c4.1,1.7,2.4-4.3,4.9-6c0.2,2.1-0.7,6.2-1.5,9.4c0.7-4.3-3,1.1-3.4-2.6
	c-0.4,3.6,5.6,7.9,3.4,12.8l1.5,1.5l1.3-2l-0.9,2.7l-0.4,0c1.8-0.2,4,0.4,5.6,1.1l1.2-0.4c4,2,5.2-0.7,8.4-0.2l1.1-0.6
	c2.2,1.1,8.6-3.8,11.2-4.7l0.3-0.6c-0.6-1.3-1.6-2.6-3.4-1.7l3.4-1.3c1.7,0.6-0.9,2.1,1.5,2.1l-1.2,0.4l1.2-0.4l0.6-1l1.1-0.5
	l0.2-1.3l2.4-2.3c0.5-2.1,1.5-3.8,2.4-5.7l-0.6,0l-0.6-0.6l1.5-0.3c0.6-1.3,1-2.8,1-4.7c0.2-6.3-8.7-37.9-7.7-40l-0.7-1.3l-6.8-31.5
	l-2-9.6l-2.2-9.5l2.7-1c1.1,0.7,2.6,0.6,4.2,0.3l-0.1-1.1l1,1l2.5-0.4l0,0c1.4-1.3,3-2.2,5.7-1.6l-0.7,0.8l-0.5,0.1
	c2.4-0.5,5.7-0.7,8.1-2l-0.9-2.9l-0.4-1l0.4,1L361.8,253.8z M344.4,336.8l0.2,3.6l1.1,1.1l-1.1-1.1l-0.9-2.9L344.4,336.8z
	 M344.9,343v2.6l-2.1-0.8L344.9,343z M340.9,366.2h-0.3l-3.4-1.3c0-2.8-2.2-0.2-3.9-2.1c-0.4-2.4-3.8-0.9-5.4-1.3l4.4-2.6
	c0.1,4.3,5.6,2.9,8.2,7.2L340.9,366.2h2.5H340.9z M344.4,348.2v-1.3c0.2,2.1,2.4,4.1,0.6,6.2C341.9,352.4,345.3,349.6,344.4,348.2z
	 M344.4,355l0.6,4.9l-0.6-2.8V355z M347,363.8l-2.1-1.3l2.8-2.1L347,363.8z M351.1,323.3l0.6,4.2l-2-4.2H351.1z M341.3,277.2
	l-3.4-1.3C338,275.8,340.6,275.3,341.3,277.2z M346.7,256c-1.8,0.3-3.8,0.7-3.3,3.1c-0.7-2.4-1.3-3.7-1.1-5.9l2.1,2.1l0.6-0.7
	L346.7,256l1-0.2L346.7,256z M310.6,351.1l0.6-3.7l0.1,0l-0.2,0.1l-1.3,3.6L310.6,351.1z M313.3,363.2l2.1-1.5
	c-2.1-0.8-1.3-3.8-4.1-2.6c-2.4,0.9-0.9,3.6-1.3,5.4l1.3,1.3l-0.4,0.2c2.5,3,6.1,5.3,8.2,6.7c-1.7-2.9-3.6-5.8-3.7-9.6H313.3z
	 M308.3,356l0,0.5h0.3l-0.1-2.2L308.3,356z M371.6,248.4l-0.1,0.3c1.9-1.9,3.9-3.9,3.9-6.9l-1.6-1.1l-3.5,1.6L369,242l-1.1,0.9
	l-1.4-0.2l-2.3,1.4l-0.6-0.1l0.5,0.1c0.7,2.8,2.2,5.6,3.2,7.8l-3.4,1.3l1.9,0.9l2.5-1.6l1.8-2.4l-0.1,0.1l0.3-3.9h1.5l0.8-3.2
	C373.2,243.8,373.2,247.4,371.6,248.4z M369.6,244.7h-0.7v-1.9h0.7V244.7z M313.3,351.6h0.7l-0.7-1.9V351.6z M350.4,258.4l0.9,0.2
	l0.8-0.4l-0.2,0.1L350.4,258.4L350.4,258.4z"/>
<path class="st2" d="M84.1,326.3l-1.1-0.4l-1.4-2l0.2-0.2l0.1-1l-0.1-5.5l0-1.6l-0.3,0.1l0.3-0.4l-0.2-2.3l-2.2-0.6l-1.1-0.3
	l1.1,0.3l2-0.7l-0.7-2.5c-2.3-1.3-4.2-3.1-7-4.1l-1.2,0.2c-0.9,0.2-2.8,0.2-4.6,2.4l-1.5-0.5l1-1.4l0.2-11c0-3.2-4.8-1-7.4-0.7l-1,0
	l0,0v0.2h-0.6v-0.3h0c-0.6-0.2-0.6-0.5-1.1,1.1l-0.5,1.2l1.9,0.2l0.8,0.5l-0.1-0.1l-0.4-0.5c3.7,1.7,1.1,7.1,4.7,9.4
	c-2.8-0.4-2.9-2.9-3.2-5.4v-0.1l-0.3,3.1l-0.1,17.3l0.1,2.8c0,2.3,0.5,1.1-1.4,2.3l-1.3,0.4l-0.2,1.2l1.4,0.7
	c3.3-0.1,6.8-0.1,10.1,0l1.9-0.7c0.7-2.6-1.5-0.9-2.7-2l0.2,0.2l0.3,1.9l0.4,0.3h-0.3l0,0.3l-0.7,0l-0.2-0.4l-0.9-0.6v-0.8l0.6,0.4
	c-0.5-2.3-0.1-4.3-1.7-6.8l1.6,2.8c-0.1-4.6-2.5-16.4,4.6-13.3l0.7,0.4l-0.6-0.4l0.3-0.3l1,1.1h-0.3l-0.3-0.3
	c3,2.8,1.6,12.4,1.4,16.3c-0.1,1.8-0.9,1.8,0.2,1.7l1,0c2.6,0.1,5.3,0.1,7.9,0.3l1.8-1.3L84.1,326.3 M77.4,311v0.7l-1.6-0.7H77.4z
	 M76.2,323.9l0.7-2.1l2.6-1.3L76.2,323.9z M79.6,318.5l-0.4-1.1c-1.1-1.2-3.9-1.5-0.9-2.8l0.9,2.8L79.6,318.5z M49.5,308l0.4-1.4
	c1.1-2.5-2.7-1-5.2-1c-5.7,0,2.4-8.6-3.8-6.8c-4.4,1.2-2.9,5.6-5,6.6l0.3-0.2l0.6-0.8l2.7,0.8c-1.7-0.4-2.4,0.6-4,0.3l0.4-0.1
	l-1.1,0.2l-1.5-0.4l-0.2,1.4c-1.5,4,2.8-1.4,2.8,3.5c0,5.2-0.2,10,0.8,15.1c0.3,1.6,1.5,2.6,3,3.1v-1.5l2.1,1.3l-0.1,0.6
	c1.9,0.2,4-0.2,5.5-0.8c1.9-0.8,2.9-1.6,2.9-3.4l-1.2-1.5l-4.3,1.4l-1.4,0l-0.1-1.4l-0.4-4.3l0,0.3c-2.9-0.1,1-1.7-1.3-2.6l1.3,0.7
	v0.4c0-2.5,0.2-5.1,0.2-7.3l0-0.4l-2.3-0.9l1.6-0.7l0.6,0.8c-0.1-0.9-0.1-0.4,1.8-0.6L49.5,308z M41.6,319.2l1.1,0.5l0,0.2h-1.1
	V319.2z M42.2,313.4l-0.2-0.1L42.2,313.4z M37.4,309.1h2.2l-0.6,0.7L37.4,309.1z M40.6,313.1l-1-0.7L40,312L40.6,313.1z M110,322
	l-3.4,2.6l-0.7,0.6l0,0.3l-2.1,0.2l-0.1,0.1l0.1-0.1l-1.1-0.4c-2.1-0.5-0.8,0.2-2.6-1.1c-2-1.5-2.4-2.6-2.8-5.1l-0.3-0.9l0.1-1.1
	c0.2-2.4-0.3-0.3,2.1-0.3l1.8,0h-0.3l0.5-1.3l1.1-0.5l-3.3-0.5c-3.2,0-1.2-3.9,0-5.8l0.5-0.8l0-0.2h-0.1h0.1l2.2-1l1,1.1
	c1.9,1.3,2.3,3.6,1.8,5.9l-1.4,1.3l-1.8,1.8c1.9,0,3.7,0,5.6-0.3l4.2-0.2c-0.2-0.2,2.3-6.2-3.9-9.8l0.5,0.7l-4.8-1.4l1.1,0.3
	l1.6-0.4l-3.7-0.8v0.4l-1-0.4c-4.7,0.5-8.7,4.3-10.1,9c1.5,2.2,2.4,4.7,2.6,7.3l0.4,0.2h-0.3v1.6l-0.9-1.6l-0.9-0.7V320l0.6,0.4
	c-0.5-2.1-0.1-4.1-1.5-6.4c-0.9,3.1-0.6,6.7,1.4,9.9l2.4,2.7h0.3v0.3c3,2.2,6.8,2,10.9,1.2c2.5-0.5,3-1.6,4.3-3.7l1.2-0.8L110,322z
	 M106.8,311.9h-0.4v-1.1h0.4V311.9z M106.4,308.6h1l-1.6,0.8L106.4,308.6z M94.9,315v-2.8l1.5,8.8L94.9,315z M97,324.3l1.3-1.4
	C98.1,323.7,98.9,324.9,97,324.3z"/>
</svg>
